# xmcd
#
# Track frame offsets:
#	150
#	14481
#	27044
#	31668
#	46417
#	60657
#	68409
#	83163
#	98209
#	111870
#	121165
#	135772
#	153203
#
# Disc length: 2232 seconds
#
# Revision: 1
# Processed by: cddbd v1.5.2PL0 Copyright (c) Steve Scherf et al.
# Submitted via: EZCDAudioConverter 3.1.2.1
#
DISCID=9008b60d
DTITLE=IMANY - SOUS LES JUPES DES FILLES
DYEAR=2016
DGENRE=Alternative
TTITLE0=THE SEASONS LOST THEIR JAZZ
TTITLE1=THE GOOD THE BAD and THE CRAZY
TTITLE2=TRY AGAIN
TTITLE3=DON'T BE SHY
TTITLE4=DROPPED DOWN
TTITLE5=THE SEASONS LOST THEIR JAZZ THEME
TTITLE6=SITTING ON THE GROUND
TTITLE7=TRY AGAIN
TTITLE8=DON'T BE SO SHY
TTITLE9=THE GOOD THE BAD....
TTITLE10=THE SEASONS .....
TTITLE11=THE GOOD ....
TTITLE12=DON'T BE .....
EXTD=
EXTT0=
EXTT1=
EXTT2=
EXTT3=
EXTT4=
EXTT5=
EXTT6=
EXTT7=
EXTT8=
EXTT9=
EXTT10=
EXTT11=
EXTT12=
PLAYORDER=
